<svg width="47" height="29" viewBox="0 0 47 29" fill="none" xmlns="http://www.w3.org/2000/svg">
<path d="M47 14.5C47 22.2588 40.7333 28.6 32.9 28.6C25.1413 28.6 18.8 22.2588 18.8 14.5C18.8 6.74129 25.0667 0.400024 32.8254 0.400024C40.7333 0.400024 47 6.74129 47 14.5Z" fill="#FFB600"/>
<path d="M32.9 0.400024C40.6587 0.400024 47 6.74129 47 14.5C47 22.2588 40.7333 28.6 32.9 28.6C25.1413 28.6 18.8 22.2588 18.8 14.5" fill="#F7981D"/>
<path d="M32.9 0.400024C40.6587 0.400024 47 6.74129 47 14.5C47 22.2588 40.7333 28.6 32.9 28.6" fill="#FF8500"/>
<path d="M13.9508 0.400024C6.26667 0.474628 0 6.74129 0 14.5C0 22.2588 6.26667 28.6 14.1 28.6C17.7556 28.6 21.0381 27.1826 23.5746 24.9445C24.0968 24.4969 24.5444 23.9746 24.9921 23.4524H22.0825C21.7095 23.0048 21.3365 22.4826 21.0381 22.0349H26.0365C26.3349 21.5873 26.6333 21.0651 26.8571 20.5429H20.2175C19.9937 20.0953 19.7698 19.573 19.6206 19.0508H27.3794C27.827 17.6334 28.1254 16.1413 28.1254 14.5746C28.1254 13.5302 27.9762 12.5603 27.827 11.5905H19.173C19.2476 11.0683 19.3968 10.6207 19.546 10.0984H27.3048C27.1556 9.57622 26.9317 9.05399 26.7079 8.60637H20.1429C20.3667 8.08415 20.6651 7.63653 20.9635 7.11431H25.9619C25.6635 6.59209 25.2905 6.06987 24.8429 5.62225H22.0825C22.5302 5.10002 22.9778 4.65241 23.5 4.20479C21.0381 1.89209 17.681 0.549231 14.0254 0.549231C14.0254 0.400024 14.0254 0.400024 13.9508 0.400024Z" fill="#FF5050"/>
<path d="M0 14.5C0 22.2588 6.26667 28.6001 14.1 28.6001C17.7556 28.6001 21.0381 27.1826 23.5746 24.9445C24.0968 24.4969 24.5444 23.9747 24.9921 23.4524H22.0825C21.7095 23.0048 21.3365 22.4826 21.0381 22.035H26.0365C26.3349 21.5874 26.6333 21.0651 26.8571 20.5429H20.2175C19.9937 20.0953 19.7698 19.5731 19.6206 19.0508H27.3794C27.827 17.6334 28.1254 16.1413 28.1254 14.5747C28.1254 13.5302 27.9762 12.5604 27.827 11.5905H19.173C19.2476 11.0683 19.3968 10.6207 19.546 10.0985H27.3048C27.1556 9.57624 26.9317 9.05402 26.7079 8.6064H20.1429C20.3667 8.08418 20.6651 7.63656 20.9635 7.11434H25.9619C25.6635 6.59211 25.2905 6.06989 24.8429 5.62227H22.0825C22.5302 5.10005 22.9778 4.65243 23.5 4.20481C21.0381 1.89211 17.681 0.549255 14.0254 0.549255H13.9508" fill="#E52836"/>
<path d="M14.1 28.6001C17.7556 28.6001 21.0381 27.1826 23.5746 24.9445C24.0968 24.4969 24.5444 23.9747 24.9921 23.4524H22.0825C21.7095 23.0048 21.3365 22.4826 21.0381 22.035H26.0365C26.3349 21.5874 26.6333 21.0651 26.8571 20.5429H20.2175C19.9936 20.0953 19.7698 19.5731 19.6206 19.0508H27.3794C27.827 17.6334 28.1254 16.1413 28.1254 14.5747C28.1254 13.5302 27.9762 12.5604 27.827 11.5905H19.173C19.2476 11.0683 19.3968 10.6207 19.546 10.0985H27.3048C27.1555 9.57624 26.9317 9.05402 26.7079 8.6064H20.1429C20.3667 8.08418 20.6651 7.63656 20.9635 7.11434H25.9619C25.6635 6.59211 25.2905 6.06989 24.8429 5.62227H22.0825C22.5302 5.10005 22.9778 4.65243 23.5 4.20481C21.0381 1.89211 17.6809 0.549255 14.0254 0.549255H13.9508" fill="#CB2026"/>
<path d="M19.0984 18.081L19.3222 16.8128C19.2476 16.8128 19.0984 16.8874 18.9492 16.8874C18.427 16.8874 18.3524 16.5889 18.427 16.4397L18.8746 13.8286H19.6953L19.9191 12.4112H19.173L19.3222 11.5159H17.8302C17.8302 11.5159 16.9349 16.4397 16.9349 17.0366C16.9349 17.9318 17.4572 18.3048 18.1286 18.3048C18.5762 18.3048 18.9492 18.1556 19.0984 18.081Z" fill="white"/>
<path d="M19.6206 15.6937C19.6206 17.7826 21.0381 18.3048 22.2317 18.3048C23.3508 18.3048 23.7984 18.081 23.7984 18.081L24.0968 16.6635C24.0968 16.6635 23.2762 17.0365 22.5302 17.0365C20.8889 17.0365 21.1873 15.8429 21.1873 15.8429H24.246C24.246 15.8429 24.4698 14.873 24.4698 14.5C24.4698 13.5302 23.9476 12.3365 22.3064 12.3365C20.7397 12.1873 19.6206 13.8286 19.6206 15.6937ZM22.2317 13.5302C23.0524 13.5302 22.9032 14.5 22.9032 14.5746H21.2619C21.2619 14.5 21.4111 13.5302 22.2317 13.5302Z" fill="white"/>
<path d="M31.7064 18.081L32.0048 16.4397C32.0048 16.4397 31.2587 16.8127 30.7365 16.8127C29.6921 16.8127 29.2444 15.9921 29.2444 15.0969C29.2444 13.3064 30.1397 12.3365 31.1841 12.3365C31.9302 12.3365 32.527 12.7842 32.527 12.7842L32.7508 11.2175C32.7508 11.2175 31.8556 10.8445 31.0349 10.8445C29.3191 10.8445 27.6032 12.3365 27.6032 15.1715C27.6032 17.0365 28.4984 18.3048 30.2889 18.3048C30.8857 18.3048 31.7064 18.081 31.7064 18.081Z" fill="white"/>
<path d="M10.8921 12.1873C9.84762 12.1873 9.10159 12.4857 9.10159 12.4857L8.87778 13.754C8.87778 13.754 9.54921 13.4556 10.519 13.4556C11.0413 13.4556 11.4889 13.5302 11.4889 13.9778C11.4889 14.2762 11.4143 14.3508 11.4143 14.3508C11.4143 14.3508 10.9667 14.3508 10.7429 14.3508C9.4746 14.3508 8.05714 14.873 8.05714 16.5889C8.05714 17.9318 8.95238 18.2302 9.4746 18.2302C10.519 18.2302 10.9667 17.5587 11.0413 17.5587L10.9667 18.1556H12.3095L12.9063 14.0524C12.9063 12.2619 11.4143 12.1873 10.8921 12.1873ZM11.1905 15.5445C11.1905 15.7683 11.0413 16.9619 10.146 16.9619C9.69841 16.9619 9.54921 16.5889 9.54921 16.3651C9.54921 15.9921 9.77302 15.4699 10.8921 15.4699C11.1159 15.5445 11.1905 15.5445 11.1905 15.5445Z" fill="white"/>
<path d="M14.3238 18.2301C14.6968 18.2301 16.5619 18.3047 16.5619 16.2904C16.5619 14.4254 14.7714 14.7984 14.7714 14.0524C14.7714 13.6793 15.0698 13.5301 15.5921 13.5301C15.8159 13.5301 16.6365 13.6047 16.6365 13.6047L16.8603 12.2619C16.8603 12.2619 16.3381 12.1127 15.4429 12.1127C14.3238 12.1127 13.2048 12.5603 13.2048 14.0524C13.2048 15.7682 15.0698 15.619 15.0698 16.2904C15.0698 16.7381 14.5476 16.8127 14.1746 16.8127C13.5032 16.8127 12.8318 16.5889 12.8318 16.5889L12.6079 17.9317C12.6825 18.0809 13.0556 18.2301 14.3238 18.2301Z" fill="white"/>
<path d="M44.0905 10.9937L43.7921 13.0079C43.7921 13.0079 43.1952 12.2619 42.3746 12.2619C41.0318 12.2619 39.8381 13.9032 39.8381 15.8429C39.8381 17.0365 40.4349 18.3048 41.7032 18.3048C42.5984 18.3048 43.1206 17.7079 43.1206 17.7079L43.046 18.2302H44.5381L45.6572 11.0683L44.0905 10.9937ZM43.4191 14.9476C43.4191 15.7683 43.046 16.8127 42.2254 16.8127C41.7032 16.8127 41.4048 16.3651 41.4048 15.619C41.4048 14.4254 41.927 13.6794 42.5984 13.6794C43.1206 13.6794 43.4191 14.0524 43.4191 14.9476Z" fill="white"/>
<path d="M2.76033 18.1556L3.65556 12.7841L3.80477 18.1556H4.84921L6.7889 12.7841L5.96826 18.1556H7.53493L8.72858 10.9937H6.26667L4.77461 15.3952L4.70001 10.9937H2.53652L1.34286 18.1556H2.76033Z" fill="white"/>
<path d="M25.8873 18.1556C26.3349 15.6937 26.4095 13.6794 27.454 14.0524C27.6032 13.0826 27.827 12.7096 27.9762 12.3365C27.9762 12.3365 27.9016 12.3365 27.6778 12.3365C27.0063 12.3365 26.4841 13.2318 26.4841 13.2318L26.6333 12.4112H25.2159L24.246 18.2302H25.8873V18.1556Z" fill="white"/>
<path d="M35.1381 12.1873C34.0937 12.1873 33.3476 12.4857 33.3476 12.4857L33.1238 13.754C33.1238 13.754 33.7953 13.4556 34.7651 13.4556C35.2873 13.4556 35.7349 13.5302 35.7349 13.9778C35.7349 14.2762 35.6603 14.3508 35.6603 14.3508C35.6603 14.3508 35.2127 14.3508 34.9889 14.3508C33.7207 14.3508 32.3032 14.873 32.3032 16.5889C32.3032 17.9318 33.1984 18.2302 33.7207 18.2302C34.7651 18.2302 35.2127 17.5587 35.2873 17.5587L35.2127 18.1556H36.5556L37.1524 14.0524C37.227 12.2619 35.6603 12.1873 35.1381 12.1873ZM35.5111 15.5445C35.5111 15.7683 35.3619 16.9619 34.4667 16.9619C34.0191 16.9619 33.8699 16.5889 33.8699 16.3651C33.8699 15.9921 34.0937 15.4699 35.2127 15.4699C35.4365 15.5445 35.4365 15.5445 35.5111 15.5445Z" fill="white"/>
<path d="M38.4206 18.1556C38.8683 15.6937 38.9429 13.6794 39.9873 14.0524C40.1365 13.0826 40.3603 12.7096 40.5095 12.3365C40.5095 12.3365 40.4349 12.3365 40.2111 12.3365C39.5397 12.3365 39.0175 13.2318 39.0175 13.2318L39.1667 12.4112H37.7492L36.7794 18.2302H38.4206V18.1556Z" fill="white"/>
<path d="M16.7857 17.0366C16.7857 17.9318 17.308 18.3048 17.9794 18.3048C18.5016 18.3048 18.9492 18.1556 19.0984 18.081L19.3222 16.8128C19.2476 16.8128 19.0984 16.8874 18.9492 16.8874C18.427 16.8874 18.3524 16.5889 18.427 16.4397L18.8746 13.8286H19.6953L19.9191 12.4112H19.173L19.3222 11.5159" fill="#DCE5E5"/>
<path d="M20.3667 15.6937C20.3667 17.7826 21.0381 18.3048 22.2317 18.3048C23.3508 18.3048 23.7984 18.081 23.7984 18.081L24.0968 16.6635C24.0968 16.6635 23.2762 17.0365 22.5302 17.0365C20.8889 17.0365 21.1873 15.8429 21.1873 15.8429H24.246C24.246 15.8429 24.4698 14.873 24.4698 14.5C24.4698 13.5302 23.9476 12.3365 22.3064 12.3365C20.7397 12.1873 20.3667 13.8286 20.3667 15.6937ZM22.2317 13.5302C23.0524 13.5302 23.2016 14.5 23.2016 14.5746H21.2619C21.2619 14.5 21.4111 13.5302 22.2317 13.5302Z" fill="#DCE5E5"/>
<path d="M31.7064 18.081L32.0048 16.4397C32.0048 16.4397 31.2587 16.8127 30.7365 16.8127C29.6921 16.8127 29.2445 15.9921 29.2445 15.0969C29.2445 13.3064 30.1397 12.3365 31.1841 12.3365C31.9302 12.3365 32.527 12.7842 32.527 12.7842L32.7508 11.2175C32.7508 11.2175 31.8556 10.8445 31.0349 10.8445C29.3191 10.8445 28.3492 12.3365 28.3492 15.1715C28.3492 17.0365 28.4984 18.3048 30.2889 18.3048C30.8857 18.3048 31.7064 18.081 31.7064 18.081Z" fill="#DCE5E5"/>
<path d="M8.87778 13.8286C8.87778 13.8286 9.54921 13.5302 10.519 13.5302C11.0413 13.5302 11.4889 13.6048 11.4889 14.0524C11.4889 14.3508 11.4143 14.4254 11.4143 14.4254C11.4143 14.4254 10.9667 14.4254 10.7429 14.4254C9.4746 14.4254 8.05714 14.9477 8.05714 16.6635C8.05714 18.0064 8.95238 18.3048 9.4746 18.3048C10.519 18.3048 10.9667 17.6334 11.0413 17.6334L10.9667 18.2302H12.3095L12.9063 14.127C12.9063 12.4112 11.4143 12.3365 10.8175 12.3365L8.87778 13.8286ZM11.9365 15.5445C11.9365 15.7683 11.0413 16.9619 10.146 16.9619C9.69841 16.9619 9.54921 16.5889 9.54921 16.3651C9.54921 15.9921 9.77302 15.4699 10.8921 15.4699C11.1159 15.5445 11.9365 15.5445 11.9365 15.5445Z" fill="#DCE5E5"/>
<path d="M12.6825 18.0809C12.6825 18.0809 13.1302 18.2301 14.3984 18.2301C14.7714 18.2301 16.6365 18.3047 16.6365 16.2904C16.6365 14.4254 14.846 14.7984 14.846 14.0524C14.846 13.6793 15.1444 13.5301 15.6667 13.5301C15.8905 13.5301 16.7111 13.6047 16.7111 13.6047L16.9349 12.2619C16.9349 12.2619 16.4127 12.1127 15.5175 12.1127C14.3984 12.1127 14.0254 12.5603 14.0254 14.0524C14.0254 15.7682 15.1444 15.619 15.1444 16.2904C15.1444 16.7381 14.6222 16.8127 14.2492 16.8127" fill="#DCE5E5"/>
<path d="M43.7921 13.008C43.7921 13.008 43.1953 12.262 42.3746 12.262C41.0318 12.262 40.5841 13.9033 40.5841 15.843C40.5841 17.0366 40.4349 18.3049 41.7032 18.3049C42.5984 18.3049 43.1207 17.708 43.1207 17.708L43.0461 18.2303H44.5381L45.6572 11.0684L43.7921 13.008ZM43.7175 14.9477C43.7175 15.7684 43.0461 16.8128 42.2254 16.8128C41.7032 16.8128 41.4048 16.3652 41.4048 15.6191C41.4048 14.4255 41.927 13.6795 42.5984 13.6795C43.1207 13.6795 43.7175 14.0525 43.7175 14.9477Z" fill="#DCE5E5"/>
<path d="M2.76033 18.1556L3.65556 12.7841L3.80477 18.1556H4.84921L6.7889 12.7841L5.96826 18.1556H7.53493L8.72858 10.9937H6.8635L4.77461 15.3952L4.70001 10.9937H3.87937L1.34286 18.1556H2.76033Z" fill="#DCE5E5"/>
<path d="M24.3206 18.1556H25.8873C26.3349 15.6937 26.4095 13.6794 27.454 14.0524C27.6032 13.0826 27.827 12.7096 27.9762 12.3365C27.9762 12.3365 27.9016 12.3365 27.6778 12.3365C27.0064 12.3365 26.4841 13.2318 26.4841 13.2318L26.6333 12.4112" fill="#DCE5E5"/>
<path d="M33.1238 13.8286C33.1238 13.8286 33.7953 13.5302 34.7651 13.5302C35.2873 13.5302 35.7349 13.6048 35.7349 14.0524C35.7349 14.3508 35.6603 14.4254 35.6603 14.4254C35.6603 14.4254 35.2127 14.4254 34.9889 14.4254C33.7207 14.4254 32.3032 14.9477 32.3032 16.6635C32.3032 18.0064 33.1984 18.3048 33.7207 18.3048C34.7651 18.3048 35.2127 17.6334 35.2873 17.6334L35.2127 18.2302H36.5556L37.1524 14.127C37.1524 12.4112 35.6603 12.3365 35.0635 12.3365L33.1238 13.8286ZM36.1826 15.5445C36.1826 15.7683 35.2873 16.9619 34.3921 16.9619C33.9445 16.9619 33.7953 16.5889 33.7953 16.3651C33.7953 15.9921 34.0191 15.4699 35.1381 15.4699C35.4365 15.5445 36.1826 15.5445 36.1826 15.5445Z" fill="#DCE5E5"/>
<path d="M36.854 18.1556H38.4206C38.8683 15.6937 38.9429 13.6794 39.9873 14.0524C40.1365 13.0826 40.3603 12.7096 40.5095 12.3365C40.5095 12.3365 40.4349 12.3365 40.2111 12.3365C39.5397 12.3365 39.0175 13.2318 39.0175 13.2318L39.1667 12.4112" fill="#DCE5E5"/>
</svg>
