<svg width="96" height="26" viewBox="0 0 96 26" fill="none" xmlns="http://www.w3.org/2000/svg">
<path d="M74.2095 7.13348H69.0286C68.7238 7.13348 68.419 7.43825 68.2667 7.74301L66.1333 21.1526C66.1333 21.4573 66.2857 21.6097 66.5905 21.6097H69.3333C69.6381 21.6097 69.7905 21.4573 69.7905 21.1526L70.4 17.343C70.4 17.0383 70.7048 16.7335 71.1619 16.7335H72.8381C76.3429 16.7335 78.3238 15.0573 78.781 11.7049C79.0857 10.3335 78.781 9.11444 78.1714 8.35254C77.2571 7.59063 75.8857 7.13348 74.2095 7.13348ZM74.819 12.1621C74.5143 13.9906 73.1429 13.9906 71.7714 13.9906H70.8571L71.4667 10.4859C71.4667 10.3335 71.619 10.1811 71.9238 10.1811H72.2286C73.1429 10.1811 74.0571 10.1811 74.5143 10.7906C74.819 10.943 74.819 11.4002 74.819 12.1621Z" fill="#139AD6"/>
<path d="M36.8762 7.13348H31.6952C31.3904 7.13348 31.0857 7.43825 30.9333 7.74301L28.8 21.1526C28.8 21.4573 28.9524 21.6097 29.2571 21.6097H31.6952C32 21.6097 32.3047 21.3049 32.4571 21.0002L33.0666 17.343C33.0666 17.0383 33.3714 16.7335 33.8285 16.7335H35.5047C39.0095 16.7335 40.9904 15.0573 41.4476 11.7049C41.7524 10.3335 41.4476 9.11444 40.8381 8.35254C39.9238 7.59063 38.7047 7.13348 36.8762 7.13348ZM37.4857 12.1621C37.1809 13.9906 35.8095 13.9906 34.4381 13.9906H33.6762L34.2857 10.4859C34.2857 10.3335 34.4381 10.1811 34.7428 10.1811H35.0476C35.9619 10.1811 36.8762 10.1811 37.3333 10.7906C37.4857 10.943 37.6381 11.4002 37.4857 12.1621Z" fill="#263B80"/>
<path d="M52.5714 12.0097H50.1333C49.9809 12.0097 49.6761 12.1621 49.6761 12.3145L49.5238 13.0764L49.3714 12.7716C48.7619 12.0097 47.6952 11.705 46.4762 11.705C43.7333 11.705 41.2952 13.8383 40.8381 16.7335C40.5333 18.2574 40.9904 19.6288 41.7523 20.5431C42.5142 21.4574 43.5809 21.7621 44.9523 21.7621C47.2381 21.7621 48.4571 20.3907 48.4571 20.3907L48.3047 21.1526C48.3047 21.4574 48.4571 21.6097 48.7619 21.6097H51.0476C51.3523 21.6097 51.6571 21.305 51.8095 21.0002L53.1809 12.4669C53.0285 12.3145 52.7238 12.0097 52.5714 12.0097ZM49.0666 16.8859C48.7619 18.2573 47.6952 19.324 46.1714 19.324C45.4095 19.324 44.8 19.0193 44.4952 18.7145C44.1904 18.2574 44.0381 17.6478 44.0381 16.8859C44.1904 15.5145 45.4095 14.4478 46.7809 14.4478C47.5428 14.4478 48 14.7526 48.4571 15.0573C48.9142 15.5145 49.0666 16.2764 49.0666 16.8859Z" fill="#263B80"/>
<path d="M89.7524 12.0094H87.3143C87.1619 12.0094 86.8571 12.1618 86.8571 12.3142L86.7048 13.0761L86.5524 12.7713C85.9428 12.0094 84.8762 11.7047 83.6571 11.7047C80.9143 11.7047 78.4762 13.838 78.019 16.7332C77.7143 18.257 78.1714 19.6285 78.9333 20.5428C79.6952 21.4571 80.7619 21.7618 82.1333 21.7618C84.419 21.7618 85.6381 20.3904 85.6381 20.3904L85.4857 21.1523C85.4857 21.457 85.6381 21.6094 85.9429 21.6094H88.2286C88.5333 21.6094 88.8381 21.3047 88.9905 20.9999L90.3619 12.4666C90.2095 12.3142 90.0571 12.0094 89.7524 12.0094ZM86.2476 16.8856C85.9428 18.257 84.8762 19.3237 83.3524 19.3237C82.5905 19.3237 81.9809 19.019 81.6762 18.7142C81.3714 18.257 81.219 17.6475 81.219 16.8856C81.3714 15.5142 82.5905 14.4475 83.9619 14.4475C84.7238 14.4475 85.1809 14.7523 85.6381 15.057C86.2476 15.5142 86.4 16.2761 86.2476 16.8856Z" fill="#139AD6"/>
<path d="M65.8286 12.0096H63.2381C62.9333 12.0096 62.781 12.162 62.6286 12.3143L59.2762 17.4953L57.7524 12.6191C57.6 12.3143 57.4476 12.162 56.9905 12.162H54.5524C54.2476 12.162 54.0952 12.4667 54.0952 12.7715L56.8381 20.8477L54.2476 24.5048C54.0952 24.8096 54.2476 25.2667 54.5524 25.2667H56.9905C57.2952 25.2667 57.4476 25.1143 57.6 24.962L65.981 12.9239C66.4381 12.4667 66.1333 12.0096 65.8286 12.0096Z" fill="#263B80"/>
<path d="M92.6476 7.59056L90.5143 21.3048C90.5143 21.6096 90.6667 21.762 90.9714 21.762H93.1048C93.4095 21.762 93.7143 21.4572 93.8667 21.1525L96 7.74293C96 7.43817 95.8476 7.28579 95.5429 7.28579H93.1048C92.9524 7.13341 92.8 7.28579 92.6476 7.59056Z" fill="#139AD6"/>
<path d="M17.5238 2.56191C16.4571 1.34286 14.4762 0.733337 11.7333 0.733337H4.11429C3.65714 0.733337 3.2 1.19048 3.04762 1.64762L0 21.6095C0 22.0667 0.304762 22.3714 0.609524 22.3714H5.33333L6.55238 14.9048V15.2095C6.70476 14.7524 7.1619 14.2952 7.61905 14.2952H9.90476C14.3238 14.2952 17.6762 12.4667 18.7429 7.4381C18.7429 7.28572 18.7429 7.13333 18.7429 6.98095C18.5905 6.98095 18.5905 6.98095 18.7429 6.98095C18.8952 5 18.5905 3.78095 17.5238 2.56191Z" fill="#263B80"/>
<path d="M18.5905 6.9809C18.5905 7.13328 18.5905 7.28566 18.5905 7.43804C17.5238 12.619 14.1714 14.2952 9.75238 14.2952H7.46667C7.00952 14.2952 6.55238 14.7523 6.4 15.2095L4.87619 24.5047C4.87619 24.8095 5.02857 25.1142 5.48571 25.1142H9.44762C9.90476 25.1142 10.3619 24.8095 10.3619 24.3523V24.1999L11.1238 19.4761V19.1714C11.1238 18.7142 11.581 18.4095 12.0381 18.4095H12.6476C16.4571 18.4095 19.5048 16.8857 20.2667 12.3142C20.5714 10.4857 20.419 8.80947 19.5048 7.7428C19.3524 7.43804 19.0476 7.13328 18.5905 6.9809Z" fill="#139AD6"/>
<path d="M17.5238 6.52391C17.3714 6.52391 17.219 6.37153 17.0667 6.37153C16.9143 6.37153 16.7619 6.37153 16.6095 6.21915C16 6.06677 15.3905 6.06677 14.6286 6.06677H8.6857C8.53332 6.06677 8.38094 6.06677 8.22856 6.21915C7.9238 6.37153 7.77142 6.67629 7.77142 6.98106L6.55237 14.9049V15.2096C6.70475 14.7525 7.16189 14.2954 7.61903 14.2954H9.90475C14.3238 14.2954 17.6762 12.4668 18.7428 7.4382C18.7428 7.28582 18.7428 7.13344 18.8952 6.98106C18.5905 6.82868 18.4381 6.6763 18.1333 6.6763C17.6762 6.52392 17.6762 6.52391 17.5238 6.52391Z" fill="#232C65"/>
</svg>
