<svg width="59" height="19" viewBox="0 0 59 19" fill="none" xmlns="http://www.w3.org/2000/svg">
<path d="M21.6333 17.9754L24.6302 1.11829H29.3127L26.4095 17.9754H21.6333Z" fill="#3C58BF"/>
<path d="M21.6333 17.9754L25.473 1.11829H29.3127L26.4095 17.9754H21.6333Z" fill="#293688"/>
<path d="M43.3603 1.30548C42.4238 0.930877 40.9254 0.556274 39.0524 0.556274C34.3698 0.556274 30.9984 2.89754 30.9984 6.26897C30.9984 8.79754 33.3397 10.1087 35.2127 10.9515C37.0857 11.7944 37.6476 12.3563 37.6476 13.1055C37.6476 14.2293 36.1492 14.7912 34.8381 14.7912C32.9651 14.7912 31.9349 14.5102 30.3429 13.8547L29.6873 13.5737L29.0317 17.4134C30.1555 17.8817 32.2159 18.3499 34.3698 18.3499C39.3333 18.3499 42.6111 16.0087 42.6111 12.4499C42.6111 10.4833 41.3936 8.98485 38.5841 7.76739C36.8984 6.92453 35.8682 6.45627 35.8682 5.61342C35.8682 4.86421 36.7111 4.115 38.5841 4.115C40.1762 4.115 41.3 4.39596 42.1428 4.77056L42.6111 4.95786L43.3603 1.30548Z" fill="#3C58BF"/>
<path d="M43.3603 1.30548C42.4238 0.930877 40.9254 0.556274 39.0524 0.556274C34.3698 0.556274 31.8413 2.89754 31.8413 6.26897C31.8413 8.79754 33.3397 10.1087 35.2127 10.9515C37.0857 11.7944 37.6476 12.3563 37.6476 13.1055C37.6476 14.2293 36.1492 14.7912 34.8381 14.7912C32.9651 14.7912 31.9349 14.5102 30.3429 13.8547L29.6873 13.5737L29.0317 17.4134C30.1555 17.8817 32.2159 18.3499 34.3698 18.3499C39.3333 18.3499 42.6111 16.0087 42.6111 12.4499C42.6111 10.4833 41.3936 8.98485 38.5841 7.76739C36.8984 6.92453 35.8682 6.45627 35.8682 5.61342C35.8682 4.86421 36.7111 4.115 38.5841 4.115C40.1762 4.115 41.3 4.39596 42.1428 4.77056L42.6111 4.95786L43.3603 1.30548Z" fill="#293688"/>
<path d="M51.4143 1.11829C50.2905 1.11829 49.4476 1.21194 48.9794 2.33575L41.9556 17.9754H47.0127L47.9492 15.1659H53.9429L54.5048 17.9754H59L55.0667 1.11829H51.4143ZM49.2603 12.3564C49.5413 11.5135 51.1333 7.39289 51.1333 7.39289C51.1333 7.39289 51.5079 6.36273 51.7889 5.70717L52.0699 7.29924C52.0699 7.29924 53.0064 11.5135 53.1937 12.45H49.2603V12.3564Z" fill="#3C58BF"/>
<path d="M52.5381 1.11829C51.4143 1.11829 50.5714 1.21194 50.1032 2.33575L41.9556 17.9754H47.0127L47.9492 15.1659H53.9429L54.5048 17.9754H59L55.0667 1.11829H52.5381ZM49.2603 12.3564C49.6349 11.4199 51.1333 7.39289 51.1333 7.39289C51.1333 7.39289 51.5079 6.36273 51.7889 5.70717L52.0699 7.29924C52.0699 7.29924 53.0064 11.5135 53.1937 12.45H49.2603V12.3564Z" fill="#293688"/>
<path d="M13.0174 12.9183L12.5492 10.4833C11.7063 7.67381 8.99046 4.58334 5.99364 3.08493L10.2079 18.069H15.2651L22.8508 1.21191H17.7936L13.0174 12.9183Z" fill="#3C58BF"/>
<path d="M13.0174 12.9183L12.5492 10.4833C11.7063 7.67381 8.99046 4.58334 5.99364 3.08493L10.2079 18.069H15.2651L22.8508 1.21191H18.7301L13.0174 12.9183Z" fill="#293688"/>
<path d="M0 1.11829L0.842857 1.30559C6.83651 2.71035 10.9571 6.26908 12.5492 10.4834L10.8635 2.52305C10.5825 1.39924 9.73968 1.11829 8.70952 1.11829H0Z" fill="#FFBC00"/>
<path d="M0 1.11829C5.99365 2.52305 10.9571 6.17543 12.5492 10.3897L10.9571 3.74051C10.6762 2.6167 9.73968 1.96114 8.70952 1.96114L0 1.11829Z" fill="#F7981D"/>
<path d="M0 1.11829C5.99365 2.52305 10.9571 6.17543 12.5492 10.3897L11.4254 6.73733C11.1444 5.61352 10.7698 4.48972 9.45873 4.02146L0 1.11829Z" fill="#ED7C00"/>
<path d="M17.7 12.3564L14.5159 9.17229L13.0175 12.731L12.6429 10.3897C11.8 7.58022 9.08412 4.48975 6.0873 2.99133L10.3016 17.9755H15.3587L17.7 12.3564Z" fill="#051244"/>
<path d="M26.4095 17.9754L22.3826 13.8548L21.6333 17.9754H26.4095Z" fill="#051244"/>
<path d="M37.1794 12.1692C37.554 12.5438 37.7413 12.8247 37.6476 13.1994C37.6476 14.3232 36.1492 14.8851 34.8381 14.8851C32.9651 14.8851 31.9349 14.6041 30.3429 13.9486L29.6873 13.6676L29.0317 17.5073C30.1555 17.9755 32.2159 18.4438 34.3698 18.4438C37.3667 18.4438 39.8016 17.6009 41.2063 16.1025L37.1794 12.1692Z" fill="#051244"/>
<path d="M42.6111 17.9755H47.0127L47.9492 15.166H53.9429L54.5048 17.9755H59L57.4079 11.139L51.7889 5.70728L52.0698 7.20569C52.0698 7.20569 53.0064 11.42 53.1937 12.3565H49.2603C49.6349 11.42 51.1333 7.39299 51.1333 7.39299C51.1333 7.39299 51.5079 6.36283 51.7889 5.70728" fill="#051244"/>
</svg>
