<svg width="14" height="18" viewBox="0 0 14 18" fill="none" xmlns="http://www.w3.org/2000/svg">
<path d="M13.5 7.36364C13.5 13.0909 6.75 18 6.75 18C6.75 18 0 13.0909 0 7.36364C2.66762e-08 5.41068 0.711159 3.53771 1.97703 2.15676C3.2429 0.775809 4.95979 0 6.75 0C8.54021 0 10.2571 0.775809 11.523 2.15676C12.7888 3.53771 13.5 5.41068 13.5 7.36364Z" fill="black"/>
<path d="M6.75 9C7.99264 9 9 7.99264 9 6.75C9 5.50736 7.99264 4.5 6.75 4.5C5.50736 4.5 4.5 5.50736 4.5 6.75C4.5 7.99264 5.50736 9 6.75 9Z" fill="white"/>
</svg>
